<svg width="187" height="39" viewBox="0 0 187 39" fill="none" xmlns="http://www.w3.org/2000/svg">
<path d="M9.5497 1.63473C12.4198 1.63473 14.9377 2.19261 17.1034 3.30838C19.2951 4.42415 20.978 6.01996 22.1522 8.09581C23.3524 10.1457 23.9525 12.5329 23.9525 15.2575C23.9525 17.982 23.3524 20.3693 22.1522 22.4192C20.978 24.4431 19.2951 26.013 17.1034 27.1287C14.9377 28.2445 12.4198 28.8024 9.5497 28.8024H0V1.63473H9.5497ZM9.35401 24.1707C12.2241 24.1707 14.442 23.3922 16.0075 21.8353C17.573 20.2784 18.3558 18.0858 18.3558 15.2575C18.3558 12.4291 17.573 10.2236 16.0075 8.64072C14.442 7.03194 12.2241 6.22754 9.35401 6.22754H5.47933V24.1707H9.35401Z" fill="#CDFF7B"/>
<path d="M26.6451 17.9431C26.6451 15.7635 27.0756 13.8303 27.9367 12.1437C28.8238 10.4571 30.011 9.15968 31.4982 8.2515C33.0116 7.34331 34.6945 6.88922 36.547 6.88922C38.1647 6.88922 39.5737 7.21357 40.7739 7.86227C42.0003 8.51098 42.9787 9.32834 43.7093 10.3144V7.23952H49.2278V28.8024H43.7093V25.6497C43.0048 26.6617 42.0264 27.505 40.7739 28.1796C39.5476 28.8283 38.1256 29.1527 36.5079 29.1527C34.6815 29.1527 33.0116 28.6856 31.4982 27.7515C30.011 26.8174 28.8238 25.507 27.9367 23.8204C27.0756 22.1078 26.6451 20.1487 26.6451 17.9431ZM43.7093 18.021C43.7093 16.6976 43.4484 15.5689 42.9265 14.6347C42.4047 13.6746 41.7002 12.9481 40.8131 12.4551C39.926 11.9361 38.9736 11.6766 37.956 11.6766C36.9384 11.6766 35.9991 11.9232 35.1381 12.4162C34.277 12.9092 33.5725 13.6357 33.0246 14.5958C32.5028 15.5299 32.2418 16.6457 32.2418 17.9431C32.2418 19.2405 32.5028 20.3822 33.0246 21.3683C33.5725 22.3283 34.277 23.0679 35.1381 23.5868C36.0252 24.1058 36.9645 24.3653 37.956 24.3653C38.9736 24.3653 39.926 24.1188 40.8131 23.6257C41.7002 23.1068 42.4047 22.3802 42.9265 21.4461C43.4484 20.486 43.7093 19.3443 43.7093 18.021Z" fill="#CDFF7B"/>
<path d="M75.3225 7.23952L61.8981 39H56.0665L60.7631 28.2575L52.0745 7.23952H58.2191L63.8159 22.3024L69.4909 7.23952H75.3225Z" fill="#CDFF7B"/>
<path d="M83.7555 10.5868C84.46 9.44511 85.3732 8.5499 86.4952 7.9012C87.6432 7.25249 88.9479 6.92814 90.409 6.92814V12.6497H88.9609C87.2388 12.6497 85.9342 13.0519 85.0471 13.8563C84.186 14.6607 83.7555 16.0619 83.7555 18.0599V28.8024H78.2762V7.23952H83.7555V10.5868Z" fill="#CDFF7B"/>
<path d="M92.6906 17.9431C92.6906 15.7635 93.1212 13.8303 93.9822 12.1437C94.8693 10.4571 96.0565 9.15968 97.5438 8.2515C99.0571 7.34331 100.74 6.88922 102.593 6.88922C104.21 6.88922 105.619 7.21357 106.819 7.86227C108.046 8.51098 109.024 9.32834 109.755 10.3144V7.23952H115.273V28.8024H109.755V25.6497C109.05 26.6617 108.072 27.505 106.819 28.1796C105.593 28.8283 104.171 29.1527 102.553 29.1527C100.727 29.1527 99.0571 28.6856 97.5438 27.7515C96.0565 26.8174 94.8693 25.507 93.9822 23.8204C93.1212 22.1078 92.6906 20.1487 92.6906 17.9431ZM109.755 18.021C109.755 16.6976 109.494 15.5689 108.972 14.6347C108.45 13.6746 107.746 12.9481 106.859 12.4551C105.972 11.9361 105.019 11.6766 104.002 11.6766C102.984 11.6766 102.045 11.9232 101.184 12.4162C100.323 12.9092 99.6181 13.6357 99.0702 14.5958C98.5483 15.5299 98.2874 16.6457 98.2874 17.9431C98.2874 19.2405 98.5483 20.3822 99.0702 21.3683C99.6181 22.3283 100.323 23.0679 101.184 23.5868C102.071 24.1058 103.01 24.3653 104.002 24.3653C105.019 24.3653 105.972 24.1188 106.859 23.6257C107.746 23.1068 108.45 22.3802 108.972 21.4461C109.494 20.486 109.755 19.3443 109.755 18.021Z" fill="#CDFF7B"/>
<path d="M119.216 17.9431C119.216 15.7635 119.646 13.8303 120.507 12.1437C121.395 10.4571 122.595 9.15968 124.108 8.2515C125.621 7.34331 127.304 6.88922 129.157 6.88922C130.566 6.88922 131.91 7.2006 133.188 7.82335C134.467 8.42016 135.484 9.22455 136.241 10.2365V0H141.799V28.8024H136.241V25.6108C135.563 26.6747 134.61 27.5309 133.384 28.1796C132.158 28.8283 130.736 29.1527 129.118 29.1527C127.291 29.1527 125.621 28.6856 124.108 27.7515C122.595 26.8174 121.395 25.507 120.507 23.8204C119.646 22.1078 119.216 20.1487 119.216 17.9431ZM136.28 18.021C136.28 16.6976 136.019 15.5689 135.497 14.6347C134.975 13.6746 134.271 12.9481 133.384 12.4551C132.497 11.9361 131.544 11.6766 130.527 11.6766C129.509 11.6766 128.57 11.9232 127.709 12.4162C126.848 12.9092 126.143 13.6357 125.595 14.5958C125.074 15.5299 124.813 16.6457 124.813 17.9431C124.813 19.2405 125.074 20.3822 125.595 21.3683C126.143 22.3283 126.848 23.0679 127.709 23.5868C128.596 24.1058 129.535 24.3653 130.527 24.3653C131.544 24.3653 132.497 24.1188 133.384 23.6257C134.271 23.1068 134.975 22.3802 135.497 21.4461C136.019 20.486 136.28 19.3443 136.28 18.021Z" fill="#CDFF7B"/>
<path d="M167.306 17.5539C167.306 18.3323 167.254 19.0329 167.15 19.6557H151.299C151.429 21.2126 151.977 22.4321 152.943 23.3144C153.908 24.1966 155.095 24.6377 156.504 24.6377C158.539 24.6377 159.987 23.7685 160.848 22.0299H166.758C166.132 24.1058 164.932 25.8184 163.158 27.1677C161.383 28.491 159.205 29.1527 156.622 29.1527C154.534 29.1527 152.656 28.6986 150.986 27.7904C149.342 26.8563 148.05 25.5459 147.111 23.8593C146.198 22.1727 145.741 20.2265 145.741 18.021C145.741 15.7894 146.198 13.8303 147.111 12.1437C148.024 10.4571 149.303 9.15968 150.946 8.2515C152.59 7.34331 154.482 6.88922 156.622 6.88922C158.683 6.88922 160.522 7.33034 162.14 8.21257C163.784 9.09481 165.049 10.3533 165.936 11.988C166.85 13.5968 167.306 15.4521 167.306 17.5539ZM161.631 15.997C161.605 14.5958 161.096 13.48 160.105 12.6497C159.113 11.7934 157.9 11.3653 156.465 11.3653C155.108 11.3653 153.96 11.7804 153.021 12.6108C152.108 13.4152 151.547 14.5439 151.338 15.997H161.631Z" fill="#CDFF7B"/>
<path d="M178.703 1.20659C180.294 1.20659 181.716 1.55688 182.969 2.25748C184.247 2.95808 185.239 3.94411 185.943 5.21557C186.648 6.46108 187 7.88822 187 9.49701C187 11.0798 186.648 12.494 185.943 13.7395C185.239 14.985 184.247 15.9711 182.969 16.6976C181.716 17.3982 180.294 17.7485 178.703 17.7485C177.111 17.7485 175.676 17.3982 174.398 16.6976C173.145 15.9711 172.154 14.985 171.423 13.7395C170.719 12.494 170.366 11.0798 170.366 9.49701C170.366 7.88822 170.719 6.46108 171.423 5.21557C172.154 3.94411 173.145 2.95808 174.398 2.25748C175.676 1.55688 177.111 1.20659 178.703 1.20659ZM178.703 15.7635C180.581 15.7635 182.082 15.1926 183.204 14.0509C184.352 12.8832 184.926 11.3653 184.926 9.49701C184.926 7.60279 184.352 6.08483 183.204 4.94311C182.082 3.77545 180.581 3.19161 178.703 3.19161C176.824 3.19161 175.324 3.77545 174.202 4.94311C173.08 6.08483 172.519 7.60279 172.519 9.49701C172.519 11.3912 173.08 12.9092 174.202 14.0509C175.324 15.1926 176.824 15.7635 178.703 15.7635ZM182.382 7.94012C182.382 8.51098 182.238 9.00399 181.951 9.41916C181.69 9.83433 181.312 10.1457 180.816 10.3533L182.851 13.5449H179.799L178.116 10.6257H177.881V13.5449H175.259V5.21557H179.368C180.281 5.21557 181.012 5.47505 181.56 5.99401C182.108 6.48702 182.382 7.13573 182.382 7.94012ZM177.842 8.67964H179.094C179.277 8.67964 179.433 8.62774 179.564 8.52395C179.694 8.42016 179.759 8.26447 179.759 8.05688C179.759 7.66766 179.538 7.47305 179.094 7.47305H177.842V8.67964Z" fill="#CDFF7B"/>
</svg>
