<svg width="34" height="34" viewBox="0 0 34 34" fill="none" xmlns="http://www.w3.org/2000/svg">
<path d="M15.488 2.2666C15.726 2.28477 15.964 2.30294 16.202 2.31909C17.6468 2.42204 19.0728 2.61583 20.4529 3.05792C21.194 3.29612 21.8538 3.68976 22.5094 4.08946C24.6494 5.39554 26.4888 7.01451 27.9377 9.02914C29.2635 10.8702 30.1091 12.8969 30.4452 15.1195C30.6143 16.2398 30.6227 17.3662 30.5601 18.4947C30.4264 20.911 29.9045 23.2365 28.8313 25.4349C28.1069 26.9166 27.1736 28.263 25.9606 29.4137C25.5451 29.8073 25.0774 30.1464 24.6306 30.5098C24.5868 30.5461 24.5346 30.5724 24.474 30.6087C23.8873 29.4762 23.309 28.3559 22.7328 27.2436C23.0084 26.9872 23.2902 26.749 23.5449 26.4866C24.71 25.2855 25.5388 23.8886 26.0984 22.3402C26.6934 20.691 26.9293 18.9893 26.8917 17.2471C26.8646 15.9451 26.6746 14.6673 26.2466 13.4298C25.3467 10.8298 23.6138 8.89389 21.1732 7.53533C19.8641 6.80659 18.4673 6.2999 16.9808 6.03344C16.9182 6.02334 16.8534 6.01931 16.7908 6.01931C11.8426 6.01931 9.16323 6.01931 4.21506 6.01931H4.07309L4.07309 22.742C4.12111 22.744 4.16913 22.75 4.21715 22.75C8.6538 22.75 10.8238 22.752 15.2604 22.748C15.6675 22.748 16.0413 22.5845 16.4025 22.417C17.8765 21.7326 18.7095 20.588 18.958 19.0377C19.102 18.1374 19.0645 17.2431 18.7784 16.371C18.3358 15.0226 17.3984 14.1081 16.0789 13.5388C15.893 13.4581 15.701 13.3834 15.5026 13.335C15.3147 13.2885 15.1184 13.2542 14.9264 13.2522C13.231 13.2461 13.2063 13.2482 11.511 13.2482H11.3335V18.9065H7.66935L7.66935 9.77403C7.72154 9.77403 7.76956 9.77403 7.81759 9.77403C10.9994 9.77403 12.5107 9.76999 15.6926 9.77605C16.6133 9.77605 17.4547 10.0688 18.2439 10.5068C19.6115 11.2699 20.6491 12.3519 21.4655 13.6438C22.1774 14.7702 22.643 15.9835 22.8351 17.2916C23.0898 19.0215 22.7265 20.6284 21.7953 22.1182C20.9706 23.4404 19.8766 24.5184 18.578 25.4066C18.5529 25.4248 18.5279 25.4429 18.4924 25.4672C19.5969 27.7462 20.7013 30.0233 21.81 32.3084C20.9289 33.021 19.9038 33.344 18.7805 33.455C18.6051 33.1119 18.4339 32.7727 18.2606 32.4336C17.5612 31.0548 16.8639 29.6741 16.1645 28.2953C15.8701 27.7139 15.5799 27.1326 15.2813 26.5532C15.2604 26.5108 15.1915 26.4846 15.1414 26.4644C15.1101 26.4523 15.0704 26.4624 15.0328 26.4624H0.185547L0.185547 2.39378C0.502898 2.39378 0.811897 2.39378 1.1209 2.39378C2.72644 2.3857 4.3299 2.37763 5.93335 2.36753C6.63069 2.3635 6.19469 2.34937 6.89203 2.34129C8.01319 2.32918 8.00103 2.31707 9.12219 2.30496C9.75481 2.2989 10.3895 2.29284 11.0221 2.28679C11.0701 2.28679 11.1161 2.27266 11.1641 2.2666C12.6047 2.2666 14.0453 2.2666 15.4859 2.2666H15.488Z" fill="#CDFF7B"/>
<path d="M0 30.4396C5.36156 30.4396 8.45644 30.4396 13.818 30.4355C13.9433 30.4355 13.9976 30.4739 14.0456 30.5809C14.5487 31.673 15.0603 32.7631 15.5697 33.8552C15.5906 33.8996 15.6094 33.942 15.6323 34.0005H0.0229662C0.0229662 33.6957 0.0229662 33.3929 0.0229662 33.0901C0.0229662 33.0437 0.00835139 32.9993 0.0020879 32.9528C0.0020879 32.1151 0.0020879 31.2773 0.0020879 30.4396H0Z" fill="#CDFF7B"/>
<path d="M30.6072 0C31.2579 0 31.8392 0.143991 32.3512 0.431974C32.8739 0.719957 33.2792 1.12527 33.5672 1.6479C33.8552 2.15987 33.9992 2.7465 33.9992 3.4078C33.9992 4.05843 33.8552 4.63972 33.5672 5.15169C33.2792 5.66366 32.8739 6.06897 32.3512 6.36762C31.8392 6.65561 31.2579 6.7996 30.6072 6.7996C29.9566 6.7996 29.3699 6.65561 28.8472 6.36762C28.3352 6.06897 27.9299 5.66366 27.6312 5.15169C27.3432 4.63972 27.1992 4.05843 27.1992 3.4078C27.1992 2.7465 27.3432 2.15987 27.6312 1.6479C27.9299 1.12527 28.3352 0.719957 28.8472 0.431974C29.3699 0.143991 29.9566 0 30.6072 0ZM30.6072 5.98364C31.3752 5.98364 31.9886 5.74899 32.4472 5.27969C32.9166 4.79972 33.1512 4.17575 33.1512 3.4078C33.1512 2.62918 32.9166 2.00521 32.4472 1.53591C31.9886 1.05594 31.3752 0.815951 30.6072 0.815951C29.8392 0.815951 29.2259 1.05594 28.7672 1.53591C28.3086 2.00521 28.0792 2.62918 28.0792 3.4078C28.0792 4.18642 28.3086 4.81038 28.7672 5.27969C29.2259 5.74899 29.8392 5.98364 30.6072 5.98364ZM32.1112 2.76784C32.1112 3.00249 32.0526 3.20514 31.9352 3.3758C31.8286 3.54646 31.6739 3.67445 31.4712 3.75978L32.3032 5.0717H31.0552L30.3672 3.87177H30.2712V5.0717H29.1992V1.6479H30.8792C31.2526 1.6479 31.5512 1.75456 31.7752 1.96788C31.9992 2.17054 32.1112 2.43719 32.1112 2.76784ZM30.2552 3.07182H30.7672C30.8419 3.07182 30.9059 3.05049 30.9592 3.00782C31.0125 2.96516 31.0392 2.90116 31.0392 2.81583C31.0392 2.65584 30.9485 2.57585 30.7672 2.57585H30.2552V3.07182Z" fill="#CDFF7B"/>
</svg>
